<svg width="165" height="80" viewBox="0 0 165 80" fill="none" xmlns="http://www.w3.org/2000/svg">
<g clip-path="url(#clip0_40_1344)">
<mask id="mask0_40_1344" style="mask-type:luminance" maskUnits="userSpaceOnUse" x="0" y="0" width="165" height="80">
<path d="M165 0H0V80H165V0Z" fill="white"/>
</mask>
<g mask="url(#mask0_40_1344)">
<path fill-rule="evenodd" clip-rule="evenodd" d="M37.7555 52.209H49.664L55.5813 47.6452L38.9232 26.503L25.576 36.7484L37.7555 52.209ZM52.0438 58.8675H34.3559L16.0422 35.4945L40.1303 17.0984L61.5676 44.3693C61.8928 44.972 62.1293 45.5796 62.2623 46.1871C62.3018 46.3815 62.3264 46.5759 62.3362 46.7752L62.351 48.4471C62.3412 48.6415 62.3215 48.8311 62.2771 49.0255L62.1441 49.4921L61.883 50.1822C61.6612 50.7023 61.3804 51.2272 60.9961 51.7472C60.7793 52.0243 60.4788 52.3013 60.2029 52.5346L59.2125 53.3511C58.9169 53.5844 58.6213 53.8128 58.3257 54.0413L52.0438 58.8675Z" fill="#C6C7C8"/>
</g>
<mask id="mask1_40_1344" style="mask-type:luminance" maskUnits="userSpaceOnUse" x="0" y="0" width="165" height="80">
<path d="M165 0H0V80H165V0Z" fill="white"/>
</mask>
<g mask="url(#mask1_40_1344)">
<path fill-rule="evenodd" clip-rule="evenodd" d="M40.559 73.3511C42.3278 73.3511 44.0966 73.215 45.8457 72.9428C47.5947 72.6707 49.3241 72.2624 51.0042 71.7229C52.6892 71.1834 54.3299 70.5127 55.9066 69.7205C57.4832 68.9282 59.0007 68.0145 60.4296 66.9841C61.8633 65.9586 63.2133 64.8213 64.4648 63.5868C65.7162 62.3523 66.8691 61.0206 67.9087 59.6063C68.9532 58.1919 69.8795 56.6998 70.6826 55.1445C71.4857 53.5892 72.1656 51.9708 72.7125 50.3086C73.2594 48.6464 73.6733 46.9453 73.9541 45.2199C74.23 43.4945 74.368 41.7496 74.368 40.0048C74.368 38.26 74.23 36.5103 73.9541 34.7897C73.6733 33.0643 73.2594 31.3632 72.7125 29.701C72.1656 28.0388 71.4857 26.4204 70.6826 24.8651C69.8795 23.3098 68.9532 21.8177 67.9087 20.4033C66.8691 18.989 65.7162 17.6573 64.4648 16.4228C63.2133 15.1883 61.8633 14.051 60.4296 13.0255C59.0007 11.9999 57.4832 11.0813 55.9066 10.2891C54.3299 9.4969 52.6892 8.82618 51.0042 8.28669C49.3241 7.7472 47.5947 7.33894 45.8457 7.06676C44.0966 6.79459 42.3278 6.6585 40.559 6.65364C38.7853 6.65364 37.0165 6.78973 35.2674 7.06676C33.5183 7.33894 31.7939 7.7472 30.1088 8.28669C28.4238 8.82618 26.7831 9.4969 25.2065 10.2891C23.6299 11.0813 22.1173 11.9951 20.6835 13.0255C19.2547 14.051 17.8998 15.1883 16.6483 16.4228C15.3968 17.6573 14.2439 18.989 13.2043 20.4033C12.1647 21.8177 11.2385 23.3098 10.4304 24.8651C9.62734 26.4204 8.94742 28.0388 8.40052 29.701C7.85363 31.3632 7.43976 33.0643 7.16385 34.7897C6.88794 36.5151 6.74505 38.26 6.74505 40.0048C6.74505 41.7496 6.88794 43.4993 7.16385 45.2199C7.43976 46.9453 7.85363 48.6464 8.40052 50.3086C8.94742 51.9708 9.62734 53.5892 10.4304 55.1445C11.2385 56.6998 12.1647 58.1919 13.2043 59.6063C14.2439 61.0206 15.3968 62.3523 16.6483 63.5868C17.8998 64.8213 19.2547 65.9586 20.6835 66.9841C22.1173 68.0097 23.6299 68.9282 25.2065 69.7205C26.7831 70.5127 28.4238 71.1834 30.1088 71.7229C31.7939 72.2624 33.5183 72.6707 35.2674 72.9428C37.0165 73.215 38.7853 73.3511 40.559 73.3511ZM40.559 79.9513C38.4355 79.9513 36.3169 79.7861 34.2229 79.4604C32.1289 79.1348 30.0596 78.6439 28.0395 77.9975C26.0244 77.3511 24.0585 76.5491 22.1715 75.5965C20.2795 74.6488 18.4664 73.5504 16.7518 72.3207C15.0372 71.0911 13.4162 69.7302 11.9184 68.2478C10.4206 66.7703 9.0361 65.1713 7.78958 63.4799C6.54305 61.7885 5.43447 59.9999 4.46878 58.1336C3.50802 56.2673 2.69507 54.3329 2.03978 52.3402C1.38449 50.3523 0.886861 48.311 0.551825 46.2454C0.221717 44.1798 0.0541992 42.0899 0.0541992 39.9951C0.0541992 37.9052 0.221717 35.8104 0.551825 33.7448C0.886861 31.6792 1.38449 29.6378 2.03978 27.65C2.69507 25.6621 3.50802 23.7229 4.46878 21.8566C5.43447 19.9951 6.54305 18.2016 7.78958 16.5103C9.0361 14.8189 10.4206 13.2199 11.9184 11.7423C13.4162 10.2648 15.0372 8.89909 16.7518 7.66944C18.4664 6.43979 20.2795 5.34137 22.1715 4.39362C24.0585 3.44587 26.0244 2.63906 28.0395 1.99265C30.0596 1.34623 32.1289 0.855343 34.2229 0.529705C36.3169 0.204067 38.4355 0.0388184 40.559 0.0388184C42.6776 0.0388184 44.8011 0.204067 46.8951 0.529705C48.9891 0.855343 51.0584 1.34623 53.0735 1.99265C55.0887 2.63906 57.0546 3.44101 58.9465 4.39362C60.8336 5.34137 62.6467 6.43979 64.3662 7.66944C66.0808 8.89909 67.6969 10.26 69.1996 11.7423C70.6974 13.2199 72.077 14.8189 73.3235 16.5103C74.57 18.2016 75.6835 19.9902 76.6443 21.8566C77.61 23.718 78.4229 25.6573 79.0782 27.65C79.7335 29.6378 80.2311 31.6792 80.5612 33.7448C80.8913 35.8104 81.0589 37.9052 81.0589 39.9951C81.0589 42.085 80.8913 44.1798 80.5612 46.2454C80.2311 48.311 79.7335 50.3523 79.0782 52.3402C78.4229 54.328 77.61 56.2673 76.6443 58.1336C75.6835 59.9999 74.57 61.7885 73.3235 63.4799C72.077 65.1713 70.6974 66.7703 69.1996 68.2478C67.6969 69.7253 66.0808 71.0911 64.3662 72.3207C62.6467 73.5504 60.8336 74.6488 58.9465 75.5965C57.0546 76.5443 55.0887 77.3511 53.0735 77.9975C51.0584 78.6439 48.9891 79.1348 46.8951 79.4604C44.8011 79.7861 42.6776 79.9513 40.559 79.9513Z" fill="#C6C7C8"/>
</g>
<mask id="mask2_40_1344" style="mask-type:luminance" maskUnits="userSpaceOnUse" x="0" y="0" width="165" height="80">
<path d="M165 0H0V80H165V0Z" fill="white"/>
</mask>
<g mask="url(#mask2_40_1344)">
<path fill-rule="evenodd" clip-rule="evenodd" d="M49.5064 63.927V54.8237H47.8263V53.9149H49.5064V52.4519C49.5064 51.4458 49.7626 50.6682 50.275 50.119C50.5312 49.8468 50.8367 49.6378 51.1964 49.5017C51.5511 49.3657 51.96 49.2976 52.4232 49.2976C52.8272 49.2976 53.2706 49.3705 53.6943 49.4726L53.5465 50.3863C53.3987 50.3474 53.2411 50.3183 53.0883 50.2988C53.0095 50.2891 52.9257 50.2794 52.8321 50.2745C52.7385 50.2697 52.64 50.2648 52.5365 50.2648C51.9206 50.2648 51.4526 50.4544 51.1224 50.8383C50.9599 51.0279 50.8367 51.2612 50.7529 51.5285C50.6741 51.7958 50.6298 52.102 50.6298 52.4471V53.91H52.9257V54.8189H50.6298V63.9221L49.5064 63.927Z" fill="#5A3184"/>
</g>
<mask id="mask3_40_1344" style="mask-type:luminance" maskUnits="userSpaceOnUse" x="0" y="0" width="165" height="80">
<path d="M165 0H0V80H165V0Z" fill="white"/>
</mask>
<g mask="url(#mask3_40_1344)">
<path fill-rule="evenodd" clip-rule="evenodd" d="M65.2974 62.5322C65.6128 62.328 65.8788 62.0996 66.0956 61.842C66.3075 61.5844 66.47 61.2928 66.5834 60.9769V59.0619H64.0805C63.169 59.0619 62.4151 59.2758 61.819 59.7035C61.5233 59.9173 61.3016 60.1555 61.1538 60.4131C61.006 60.6707 60.9272 60.9526 60.9272 61.2539C60.9272 61.8226 61.1193 62.2794 61.4987 62.6245C61.6859 62.7995 61.9126 62.9259 62.1688 63.0133C62.4299 63.1008 62.7255 63.1446 63.0556 63.1446C63.9228 63.1397 64.6668 62.9404 65.2974 62.5322ZM66.7903 63.9271C66.7213 63.5771 66.6671 63.2709 66.6326 63.0182C66.5982 62.7606 66.5834 62.503 66.5834 62.2406C66.2336 62.7849 65.7409 63.232 65.1102 63.5868C64.7949 63.7667 64.4549 63.8979 64.0952 63.9854C63.7306 64.0729 63.3463 64.1166 62.9374 64.1166C61.9421 64.1166 61.1735 63.8542 60.6266 63.3341C60.3507 63.0717 60.1487 62.7655 60.0108 62.4107C59.8728 62.0559 59.8038 61.6573 59.8038 61.2102C59.8038 60.3159 60.2029 59.5917 60.9962 59.0376C61.3903 58.7606 61.8485 58.5516 62.3659 58.4107C62.8783 58.2746 63.4547 58.2017 64.0903 58.2017H66.5834V56.9623C66.5834 56.2478 66.3518 55.6841 65.8936 55.2807C65.667 55.0765 65.3861 54.9259 65.0659 54.8238C64.7407 54.7217 64.3662 54.6731 63.9474 54.6731C63.1788 54.6731 62.558 54.8578 62.09 55.2272C61.8535 55.4119 61.6761 55.6209 61.5578 55.8542C61.4396 56.0875 61.3805 56.345 61.3805 56.6221H60.3409L60.3212 56.5686C60.2818 55.8153 60.6069 55.1543 61.3016 54.5856C61.6465 54.2989 62.0456 54.085 62.494 53.9441C62.9473 53.8031 63.4498 53.7302 64.0066 53.7302C65.1201 53.7302 66.0118 54.0121 66.6868 54.5711C67.0219 54.8529 67.2781 55.1932 67.4456 55.5966C67.6131 56 67.6969 56.4617 67.6969 56.9866V61.9052C67.7018 62.6051 67.7708 63.2563 67.9629 63.9222H66.7903V63.9271Z" fill="#5A3184"/>
</g>
<mask id="mask4_40_1344" style="mask-type:luminance" maskUnits="userSpaceOnUse" x="0" y="0" width="165" height="80">
<path d="M165 0H0V80H165V0Z" fill="white"/>
</mask>
<g mask="url(#mask4_40_1344)">
<path fill-rule="evenodd" clip-rule="evenodd" d="M81.7733 62.5565C82.0492 62.3475 82.2562 62.0947 82.3941 61.8031C82.5321 61.5115 82.601 61.181 82.601 60.8068H83.6061L83.6259 60.8602C83.6505 61.7837 83.281 62.5565 82.5173 63.1834C82.1379 63.4945 81.724 63.7278 81.2806 63.8833C80.8421 64.0389 80.3691 64.1166 79.8666 64.1166C78.5116 64.1166 77.4622 63.6452 76.7084 62.712C76.3339 62.2454 76.0481 61.7108 75.8609 61.1081C75.6737 60.5103 75.5801 59.8444 75.5801 59.1105V58.7217C75.5801 57.2685 75.9545 56.068 76.7034 55.1348C77.0779 54.6683 77.5312 54.3135 78.0534 54.0802C78.5806 53.8469 79.1817 53.7302 79.8567 53.7302C80.9406 53.7302 81.8472 54.0559 82.5715 54.7023C82.9361 55.0279 83.2071 55.4022 83.3795 55.825C83.5569 56.2527 83.6357 56.729 83.6259 57.2539L83.6061 57.3074H82.601C82.601 56.5054 82.335 55.8639 81.8029 55.3876C81.5417 55.1494 81.2461 54.9696 80.9209 54.8481C80.5958 54.7266 80.241 54.6683 79.8567 54.6683C78.7925 54.6683 77.9992 55.0522 77.4819 55.825C77.2208 56.209 77.0286 56.6464 76.9005 57.1276C76.7675 57.6087 76.7034 58.1433 76.7034 58.7217V59.1105C76.7034 60.2867 76.9646 61.2588 77.4819 62.0267C77.743 62.4107 78.0682 62.6974 78.4673 62.8918C78.8664 63.0814 79.3295 63.1786 79.8666 63.1786C80.581 63.1883 81.2166 62.9745 81.7733 62.5565Z" fill="#5A3184"/>
</g>
<mask id="mask5_40_1344" style="mask-type:luminance" maskUnits="userSpaceOnUse" x="0" y="0" width="165" height="80">
<path d="M165 0H0V80H165V0Z" fill="white"/>
</mask>
<g mask="url(#mask5_40_1344)">
<path fill-rule="evenodd" clip-rule="evenodd" d="M92.7506 51.0524H91.6371V49.4971H92.7506V51.0524ZM92.7506 63.9272H91.6371V53.9199H92.7506V63.9272Z" fill="#5A3184"/>
</g>
<mask id="mask6_40_1344" style="mask-type:luminance" maskUnits="userSpaceOnUse" x="0" y="0" width="165" height="80">
<path d="M165 0H0V80H165V0Z" fill="white"/>
</mask>
<g mask="url(#mask6_40_1344)">
<path d="M102.57 49.4971H101.457V63.9272H102.57V49.4971Z" fill="#5A3184"/>
</g>
<mask id="mask7_40_1344" style="mask-type:luminance" maskUnits="userSpaceOnUse" x="0" y="0" width="165" height="80">
<path d="M165 0H0V80H165V0Z" fill="white"/>
</mask>
<g mask="url(#mask7_40_1344)">
<path fill-rule="evenodd" clip-rule="evenodd" d="M112.395 51.0524H111.276V49.4971H112.395V51.0524ZM112.395 63.9272H111.276V53.9199H112.395V63.9272Z" fill="#5A3184"/>
</g>
<mask id="mask8_40_1344" style="mask-type:luminance" maskUnits="userSpaceOnUse" x="0" y="0" width="165" height="80">
<path d="M165 0H0V80H165V0Z" fill="white"/>
</mask>
<g mask="url(#mask8_40_1344)">
<path fill-rule="evenodd" clip-rule="evenodd" d="M122.712 51.3535V53.9149H124.944V54.8237H122.712V61.3462C122.712 62.0024 122.83 62.4641 123.071 62.7363C123.19 62.8724 123.332 62.9744 123.49 63.0473C123.653 63.1154 123.83 63.1494 124.032 63.1494C124.17 63.1494 124.303 63.1397 124.431 63.1251C124.495 63.1154 124.564 63.1056 124.638 63.0959C124.717 63.0813 124.796 63.0668 124.884 63.0473L125.052 63.8687C124.904 63.9416 124.717 64.0048 124.495 64.0485C124.274 64.0923 124.057 64.1166 123.835 64.1166C123.121 64.1166 122.569 63.893 122.17 63.4507C121.973 63.2271 121.825 62.9404 121.726 62.5905C121.623 62.2405 121.574 61.8225 121.574 61.3414V54.8237H119.824V53.9149H121.574V51.3535H122.712Z" fill="#5A3184"/>
</g>
<mask id="mask9_40_1344" style="mask-type:luminance" maskUnits="userSpaceOnUse" x="0" y="0" width="165" height="80">
<path d="M165 0H0V80H165V0Z" fill="white"/>
</mask>
<g mask="url(#mask9_40_1344)">
<path fill-rule="evenodd" clip-rule="evenodd" d="M133.852 51.0524H132.738V49.4971H133.852V51.0524ZM133.852 63.9272H132.738V53.9199H133.852V63.9272Z" fill="#5A3184"/>
</g>
<mask id="mask10_40_1344" style="mask-type:luminance" maskUnits="userSpaceOnUse" x="0" y="0" width="165" height="80">
<path d="M165 0H0V80H165V0Z" fill="white"/>
</mask>
<g mask="url(#mask10_40_1344)">
<path fill-rule="evenodd" clip-rule="evenodd" d="M144.041 55.5917C143.76 55.8979 143.543 56.243 143.38 56.6318C143.218 57.0206 143.109 57.4483 143.065 57.9149L143.095 57.9684H148.904V57.7351C148.904 56.8457 148.672 56.1166 148.199 55.5382C147.962 55.2515 147.677 55.0328 147.337 54.887C146.997 54.7412 146.608 54.6731 146.169 54.6731C145.307 54.678 144.597 54.9793 144.041 55.5917ZM143.075 62.746C142.666 62.2892 142.356 61.7642 142.154 61.1762C141.947 60.5881 141.843 59.9368 141.843 59.2175V58.7071C141.843 57.2636 142.257 56.0729 143.09 55.1348C143.504 54.6683 143.967 54.3135 144.479 54.0802C144.991 53.8469 145.553 53.7302 146.169 53.7302C147.401 53.7302 148.352 54.119 149.022 54.9015C149.357 55.2904 149.613 55.7472 149.781 56.2721C149.948 56.7971 150.032 57.39 150.032 58.051V58.9113H142.971V59.2175C142.971 60.3596 143.262 61.3074 143.848 62.0559C144.139 62.4301 144.489 62.712 144.893 62.9015C145.297 63.0911 145.755 63.1834 146.273 63.1834C146.888 63.1834 147.46 63.0814 147.977 62.8821C148.238 62.78 148.475 62.6634 148.692 62.5273C148.904 62.3912 149.101 62.2406 149.273 62.0704L149.751 62.8286C149.391 63.198 148.928 63.5042 148.347 63.7472C148.061 63.8687 147.741 63.9611 147.396 64.0194C147.051 64.0777 146.672 64.1118 146.273 64.1118C144.957 64.1215 143.893 63.6646 143.075 62.746Z" fill="#5A3184"/>
</g>
<mask id="mask11_40_1344" style="mask-type:luminance" maskUnits="userSpaceOnUse" x="0" y="0" width="165" height="80">
<path d="M165 0H0V80H165V0Z" fill="white"/>
</mask>
<g mask="url(#mask11_40_1344)">
<path fill-rule="evenodd" clip-rule="evenodd" d="M163.251 60.1358C163.054 59.9608 162.783 59.8053 162.428 59.6595C162.078 59.5185 161.645 59.3922 161.137 59.2804C159.935 59.0325 159.043 58.6972 158.457 58.2694C158.166 58.0556 157.95 57.798 157.802 57.4967C157.654 57.1953 157.58 56.8551 157.58 56.4663C157.58 55.7032 157.91 55.052 158.56 54.5222C158.891 54.2549 159.27 54.0556 159.699 53.9244C160.132 53.7931 160.615 53.7251 161.157 53.7251C162.285 53.7251 163.192 54.007 163.867 54.5708C164.202 54.8527 164.453 55.1686 164.611 55.5137C164.773 55.8636 164.847 56.2427 164.833 56.6558L164.813 56.7093H163.773C163.773 56.1601 163.532 55.6838 163.054 55.2755C162.812 55.0714 162.537 54.9207 162.221 54.8187C161.906 54.7166 161.546 54.668 161.157 54.668C160.344 54.668 159.728 54.843 159.319 55.1929C159.112 55.3679 158.955 55.5574 158.851 55.7616C158.748 55.9657 158.698 56.1844 158.698 56.4225C158.698 56.8794 158.876 57.2585 159.226 57.555C159.403 57.7057 159.669 57.8466 160.024 57.9778C160.374 58.1091 160.812 58.2306 161.344 58.3472C162.532 58.6048 163.428 58.9693 164.039 59.4311C164.345 59.6643 164.571 59.9317 164.724 60.2476C164.877 60.5586 164.951 60.9086 164.951 61.3023C164.951 62.1334 164.611 62.8138 163.926 63.3338C163.581 63.5963 163.187 63.7907 162.734 63.9219C162.28 64.0532 161.773 64.1163 161.211 64.1163C159.979 64.1163 159.014 63.8247 158.309 63.2464C157.959 62.9547 157.698 62.6388 157.531 62.2937C157.363 61.9487 157.289 61.5744 157.309 61.1759L157.329 61.1224H158.358C158.403 61.8417 158.703 62.3667 159.255 62.6971C159.531 62.8624 159.832 62.9839 160.162 63.0665C160.487 63.1492 160.837 63.188 161.211 63.188C162.024 63.188 162.665 63.0082 163.133 62.6534C163.369 62.4736 163.542 62.2792 163.66 62.0653C163.778 61.8515 163.837 61.6182 163.837 61.3703C163.837 60.894 163.64 60.4857 163.251 60.1358Z" fill="#5A3184"/>
</g>
<mask id="mask12_40_1344" style="mask-type:luminance" maskUnits="userSpaceOnUse" x="0" y="0" width="165" height="80">
<path d="M165 0H0V80H165V0Z" fill="white"/>
</mask>
<g mask="url(#mask12_40_1344)">
<path fill-rule="evenodd" clip-rule="evenodd" d="M62.3708 42.1385C63.4449 41.4969 64.2874 40.6221 64.8934 39.5139C65.1989 38.9599 65.4256 38.3718 65.5783 37.7448C65.731 37.1227 65.8049 36.4617 65.8049 35.7715C65.8049 34.3864 65.5044 33.1324 64.8934 32.0097C64.2874 30.887 63.4449 30.0073 62.3708 29.3657C61.8387 29.0449 61.2721 28.8068 60.671 28.6464C60.0699 28.486 59.4442 28.4082 58.779 28.4082C57.4586 28.4082 56.2613 28.729 55.1873 29.3657C54.1132 30.0073 53.2707 30.887 52.6449 32.0097C52.3345 32.5686 52.103 33.1664 51.9453 33.7934C51.7926 34.4204 51.7137 35.0814 51.7137 35.7715C51.7137 37.1567 52.0241 38.4009 52.6449 39.5139C53.2707 40.6221 54.1132 41.4969 55.1873 42.1385C55.7243 42.4593 56.2909 42.6974 56.8871 42.8578C57.4882 43.0182 58.1188 43.096 58.779 43.096C60.1044 43.1008 61.3017 42.78 62.3708 42.1385ZM64.317 26.3183C65.9724 27.2709 67.283 28.5783 68.2487 30.2357C68.7316 31.0619 69.0962 31.9417 69.3376 32.8651C69.579 33.7886 69.6973 34.7606 69.6973 35.7764V44.5103C69.6973 45.0838 69.5051 45.5601 69.1208 45.9392C68.9286 46.1288 68.7119 46.2697 68.4704 46.3669C68.229 46.4593 67.963 46.5079 67.6723 46.5079C67.0909 46.5079 66.608 46.3183 66.2237 45.9392C66.0316 45.7497 65.8887 45.5358 65.7902 45.2977C65.6965 45.0595 65.6473 44.7971 65.6473 44.5103V43.0619C64.721 44.1847 63.5976 45.0595 62.2723 45.6865C61.6121 45.9975 60.9223 46.2357 60.2079 46.3912C59.4935 46.5468 58.7544 46.6245 57.9858 46.6245C56.0791 46.6245 54.3546 46.1531 52.8075 45.215C51.2555 44.277 50.0386 42.9745 49.1517 41.3171C48.7083 40.486 48.3782 39.6112 48.1564 38.6877C47.9347 37.7643 47.8214 36.7922 47.8214 35.7764C47.8214 33.74 48.2993 31.893 49.2502 30.2357C50.2061 28.5783 51.5216 27.2709 53.2017 26.3183C54.0442 25.842 54.9261 25.4824 55.8573 25.2442C56.7885 25.0061 57.7592 24.8894 58.779 24.8894C60.8188 24.8894 62.6664 25.3657 64.317 26.3183Z" fill="#040304"/>
</g>
<mask id="mask13_40_1344" style="mask-type:luminance" maskUnits="userSpaceOnUse" x="0" y="0" width="165" height="80">
<path d="M165 0H0V80H165V0Z" fill="white"/>
</mask>
<g mask="url(#mask13_40_1344)">
<path fill-rule="evenodd" clip-rule="evenodd" d="M90.6665 42.1384C91.7406 41.4969 92.588 40.6172 93.2088 39.4945C93.5192 38.9355 93.7508 38.3377 93.9084 37.7107C94.0612 37.0838 94.14 36.4228 94.14 35.7326C94.14 34.3474 93.8296 33.1032 93.2088 31.9902C92.588 30.8821 91.7406 30.0072 90.6665 29.3657C90.1294 29.0449 89.5628 28.8067 88.9667 28.6463C88.3656 28.486 87.7349 28.4082 87.0747 28.4082C85.7494 28.4082 84.5521 28.729 83.4829 29.3657C82.4088 30.0072 81.5713 30.8821 80.9603 31.9902C80.6548 32.5443 80.4282 33.1324 80.2755 33.7593C80.1227 34.3815 80.0488 35.0376 80.0488 35.7326C80.0488 37.1178 80.3494 38.3669 80.9603 39.4945C81.5713 40.6172 82.4088 41.4969 83.4829 42.1384C84.015 42.4592 84.5866 42.6974 85.1827 42.8578C85.7838 43.0182 86.4145 43.0959 87.0747 43.0959C88.3951 43.1008 89.5973 42.78 90.6665 42.1384ZM93.0511 26.2988C94.5982 27.2369 95.8152 28.5394 96.702 30.1968C97.1455 31.0279 97.4756 31.9027 97.6973 32.8262C97.919 33.7496 98.0323 34.7217 98.0323 35.7375C98.0323 37.7739 97.5544 39.6208 96.6035 41.2782C95.6477 42.9355 94.3322 44.2429 92.6521 45.1956C91.8095 45.6719 90.9276 46.0315 89.9964 46.2697C89.0652 46.5078 88.0946 46.6293 87.0747 46.6293C85.0349 46.6293 83.1922 46.153 81.5368 45.2004C79.8813 44.2478 78.5707 42.9404 77.605 41.283C77.1222 40.4519 76.7625 39.5771 76.5211 38.6536C76.2747 37.7302 76.1565 36.7581 76.1565 35.7423V17.876C76.1565 17.2782 76.3487 16.7921 76.733 16.4276C76.9251 16.2429 77.1419 16.1068 77.3833 16.0145C77.6247 15.9222 77.8908 15.8784 78.1815 15.8784C78.7875 15.8784 79.2802 16.0631 79.6497 16.4276C79.837 16.6123 79.9749 16.8213 80.0685 17.0643C80.1572 17.3073 80.2065 17.5747 80.2065 17.876V28.4519C81.1328 27.3292 82.2561 26.4544 83.5815 25.8274C84.2417 25.5115 84.9315 25.2782 85.6459 25.1226C86.3603 24.9671 87.0993 24.8894 87.868 24.8894C89.7747 24.8894 91.4991 25.3559 93.0511 26.2988Z" fill="#040304"/>
</g>
<mask id="mask14_40_1344" style="mask-type:luminance" maskUnits="userSpaceOnUse" x="0" y="0" width="165" height="80">
<path d="M165 0H0V80H165V0Z" fill="white"/>
</mask>
<g mask="url(#mask14_40_1344)">
<path fill-rule="evenodd" clip-rule="evenodd" d="M106.655 45.5455C105.743 44.9331 105.034 44.068 104.531 42.9598C104.28 42.4058 104.093 41.8177 103.969 41.1907C103.841 40.5686 103.777 39.9076 103.777 39.2174V17.8371C103.777 17.2636 103.964 16.7921 104.334 16.4276C104.521 16.2429 104.733 16.1068 104.97 16.0145C105.206 15.9222 105.472 15.8784 105.763 15.8784C106.344 15.8784 106.822 16.0631 107.192 16.4276C107.379 16.6123 107.517 16.8213 107.61 17.0546C107.704 17.2879 107.748 17.5503 107.748 17.8371V39.2223C107.748 40.1895 107.936 40.9866 108.305 41.6135C108.487 41.9246 108.699 42.1627 108.941 42.3183C109.177 42.4738 109.443 42.5516 109.734 42.5516H110.724C111.256 42.5516 111.685 42.7362 112.015 43.1008C112.183 43.2855 112.306 43.4896 112.39 43.7277C112.473 43.961 112.513 44.2235 112.513 44.5102C112.513 45.0838 112.262 45.5552 111.759 45.9197C111.508 46.1044 111.217 46.2405 110.897 46.3328C110.547 46.4301 110.163 46.4738 109.734 46.4689C108.596 46.4689 107.571 46.1579 106.655 45.5455Z" fill="#040304"/>
</g>
<mask id="mask15_40_1344" style="mask-type:luminance" maskUnits="userSpaceOnUse" x="0" y="0" width="165" height="80">
<path d="M165 0H0V80H165V0Z" fill="white"/>
</mask>
<g mask="url(#mask15_40_1344)">
<path fill-rule="evenodd" clip-rule="evenodd" d="M131.265 42.1579C132.339 41.531 133.172 40.661 133.768 39.5528C134.063 38.9988 134.29 38.4058 134.438 37.774C134.586 37.1421 134.66 36.4763 134.66 35.7715C134.66 34.3621 134.364 33.0935 133.768 31.9708C133.172 30.8481 132.339 29.9732 131.265 29.3463C130.733 29.0352 130.161 28.7971 129.555 28.6415C128.949 28.486 128.309 28.4082 127.634 28.4082C126.284 28.4082 125.072 28.7193 124.002 29.3463C122.928 29.9732 122.091 30.8481 121.48 31.9708C121.174 32.5297 120.948 33.1276 120.795 33.7643C120.642 34.3961 120.568 35.0668 120.568 35.7715C120.568 37.181 120.874 38.4398 121.48 39.5528C122.091 40.661 122.928 41.531 124.002 42.1579C124.54 42.469 125.106 42.7071 125.712 42.8627C126.318 43.0182 126.959 43.096 127.634 43.096C128.984 43.1008 130.196 42.7849 131.265 42.1579ZM121.958 45.2345C120.288 44.3062 118.992 43.0231 118.065 41.3754C117.602 40.554 117.257 39.6743 117.026 38.7412C116.794 37.808 116.676 36.8214 116.676 35.7764C116.676 33.6622 117.139 31.7813 118.065 30.1385C118.992 28.4957 120.288 27.2078 121.958 26.2794C122.79 25.8177 123.682 25.4678 124.628 25.2393C125.574 25.0061 126.574 24.8894 127.634 24.8894C129.723 24.8894 131.6 25.3511 133.25 26.2794C134.906 27.2078 136.202 28.4909 137.143 30.1385C137.611 30.9599 137.966 31.8396 138.197 32.7825C138.434 33.7205 138.552 34.7217 138.552 35.7764C138.552 37.8663 138.089 39.7327 137.162 41.3754C136.236 43.0182 134.945 44.3062 133.29 45.2345C132.462 45.6962 131.58 46.0461 130.634 46.2794C129.693 46.5127 128.693 46.6294 127.634 46.6294C125.515 46.6245 123.623 46.1579 121.958 45.2345Z" fill="#040304"/>
</g>
<mask id="mask16_40_1344" style="mask-type:luminance" maskUnits="userSpaceOnUse" x="0" y="0" width="165" height="80">
<path d="M165 0H0V80H165V0Z" fill="white"/>
</mask>
<g mask="url(#mask16_40_1344)">
<path fill-rule="evenodd" clip-rule="evenodd" d="M162.931 25.0061C162.566 25.0061 162.206 25.0839 161.896 25.2491C161.586 25.4144 161.324 25.6622 161.152 25.9684C160.98 26.2746 160.901 26.644 160.901 27.0037V38.0462C160.901 38.6489 160.812 39.2564 160.526 39.8737C160.241 40.4909 159.787 41.1228 159.181 41.6282C158.58 42.1288 157.826 42.5031 157.097 42.7461C156.363 42.9842 155.653 43.096 154.717 43.0523C153.786 43.0134 152.633 42.8238 151.658 42.3475C150.682 41.8712 149.889 41.1082 149.362 40.1021C148.83 39.096 148.633 37.8518 148.633 36.6367V27.0037C148.633 26.6489 148.554 26.2941 148.381 25.9879C148.204 25.6817 147.948 25.4289 147.637 25.2588C147.332 25.0887 146.967 25.0061 146.608 25.0061C146.248 25.0061 145.888 25.0887 145.578 25.2588C145.267 25.4289 145.011 25.6817 144.839 25.9879C144.666 26.2941 144.583 26.6489 144.583 27.0037V36.6367C144.583 37.9296 144.706 39.2321 145.149 40.5152C145.597 41.7935 146.302 43.0523 147.263 44.0243C148.228 44.9964 149.441 45.6865 150.633 46.0997C151.82 46.5128 152.988 46.644 153.998 46.6586C155.008 46.6732 155.86 46.5614 156.678 46.3573C157.496 46.1531 158.275 45.8518 158.984 45.4581C159.694 45.0693 160.334 44.5881 160.901 44.034V44.4666C160.901 44.8214 160.984 45.1762 161.157 45.4824C161.329 45.7886 161.586 46.0413 161.896 46.2115C162.206 46.3816 162.566 46.4593 162.931 46.4642C163.295 46.4642 163.665 46.3864 163.975 46.2163C164.286 46.0462 164.537 45.7886 164.704 45.4824C164.872 45.1762 164.951 44.8214 164.951 44.4666V27.0037C164.951 26.644 164.877 26.2746 164.709 25.9684C164.542 25.6622 164.286 25.4095 163.975 25.2443C163.665 25.079 163.295 25.0061 162.931 25.0061Z" fill="#040304"/>
</g>
</g>
<defs>
<clipPath id="clip0_40_1344">
<rect width="165" height="80" fill="white"/>
</clipPath>
</defs>
</svg>
