<svg width="16" height="16" viewBox="0 0 16 16" fill="none" xmlns="http://www.w3.org/2000/svg">
    <g clip-path="url(#clip0_38_3522)">
        <path
            d="M13.8594 15.1162H2.14062C1.77194 15.1158 1.41846 14.9692 1.15776 14.7084C0.897058 14.4477 0.750414 14.0943 0.75 13.7256V4.17871C0.750414 3.81002 0.897058 3.45655 1.15776 3.19585C1.41846 2.93514 1.77194 2.7885 2.14062 2.78809H13.8594C14.2281 2.7885 14.5815 2.93514 14.8422 3.19585C15.1029 3.45655 15.2496 3.81002 15.25 4.17871V13.7256C15.2496 14.0943 15.1029 14.4477 14.8422 14.7084C14.5815 14.9692 14.2281 15.1158 13.8594 15.1162ZM2.14062 3.22559C1.88792 3.22583 1.64563 3.32633 1.46694 3.50502C1.28825 3.68372 1.18775 3.926 1.1875 4.17871V13.7256C1.18783 13.9783 1.28836 14.2205 1.46703 14.3992C1.6457 14.5779 1.88794 14.6784 2.14062 14.6787H13.8594C14.1121 14.6784 14.3543 14.5779 14.533 14.3992C14.7116 14.2205 14.8122 13.9783 14.8125 13.7256V4.17871C14.8123 3.926 14.7118 3.68372 14.5331 3.50502C14.3544 3.32633 14.1121 3.22583 13.8594 3.22559H2.14062Z"
            fill="#4F525B"/>
        <path
            d="M3.96031 5.13004C3.37094 5.13004 3.0625 4.06254 3.0625 3.00691C3.0625 1.95129 3.37094 0.883789 3.96031 0.883789C4.54969 0.883789 4.85813 1.95191 4.85813 3.00691C4.85813 3.06493 4.83508 3.12057 4.79405 3.16159C4.75303 3.20262 4.69739 3.22566 4.63938 3.22566C4.58136 3.22566 4.52572 3.20262 4.4847 3.16159C4.44367 3.12057 4.42063 3.06493 4.42063 3.00691C4.42063 1.91316 4.09406 1.32129 3.96031 1.32129C3.82656 1.32129 3.5 1.91191 3.5 3.00691C3.5 4.10191 3.82688 4.69254 3.96031 4.69254C4.01833 4.69254 4.07397 4.71559 4.11499 4.75661C4.15602 4.79763 4.17906 4.85327 4.17906 4.91129C4.17906 4.96931 4.15602 5.02494 4.11499 5.06597C4.07397 5.10699 4.01833 5.13004 3.96031 5.13004Z"
            fill="#4F525B"/>
        <path
            d="M7.99999 5.13004C7.41061 5.13004 7.10217 4.06191 7.10217 3.00691C7.10217 1.95191 7.41061 0.883789 7.99999 0.883789C8.58936 0.883789 8.8978 1.95191 8.8978 3.00691C8.8978 3.06493 8.87475 3.12057 8.83373 3.16159C8.7927 3.20262 8.73706 3.22566 8.67905 3.22566C8.62103 3.22566 8.56539 3.20262 8.52437 3.16159C8.48334 3.12057 8.4603 3.06493 8.4603 3.00691C8.4603 1.91316 8.13342 1.32129 7.99999 1.32129C7.86655 1.32129 7.53967 1.91191 7.53967 3.00691C7.53967 4.10191 7.86624 4.69254 7.99999 4.69254C8.058 4.69254 8.11364 4.71559 8.15466 4.75661C8.19569 4.79763 8.21874 4.85327 8.21874 4.91129C8.21874 4.96931 8.19569 5.02494 8.15466 5.06597C8.11364 5.10699 8.058 5.13004 7.99999 5.13004Z"
            fill="#4F525B"/>
        <path
            d="M12.0397 5.13004C11.4503 5.13004 11.1418 4.06191 11.1418 3.00691C11.1418 1.95191 11.4503 0.883789 12.0397 0.883789C12.629 0.883789 12.9375 1.95191 12.9375 3.00691C12.9375 3.06493 12.9144 3.12057 12.8734 3.16159C12.8324 3.20262 12.7767 3.22566 12.7187 3.22566C12.6607 3.22566 12.6051 3.20262 12.564 3.16159C12.523 3.12057 12.5 3.06493 12.5 3.00691C12.5 1.91316 12.1731 1.32129 12.0397 1.32129C11.9062 1.32129 11.5793 1.91191 11.5793 3.00691C11.5793 4.10191 11.9059 4.69254 12.0397 4.69254C12.0977 4.69254 12.1533 4.71559 12.1943 4.75661C12.2354 4.79763 12.2584 4.85327 12.2584 4.91129C12.2584 4.96931 12.2354 5.02494 12.1943 5.06597C12.1533 5.10699 12.0977 5.13004 12.0397 5.13004Z"
            fill="#4F525B"/>
        <path
            d="M4.90626 8.37512H2.66626C2.60824 8.37512 2.5526 8.35207 2.51158 8.31105C2.47056 8.27002 2.44751 8.21438 2.44751 8.15637V6.60449C2.44751 6.54648 2.47056 6.49084 2.51158 6.44981C2.5526 6.40879 2.60824 6.38574 2.66626 6.38574H4.90626C4.96428 6.38574 5.01992 6.40879 5.06094 6.44981C5.10196 6.49084 5.12501 6.54648 5.12501 6.60449V8.15637C5.12501 8.21438 5.10196 8.27002 5.06094 8.31105C5.01992 8.35207 4.96428 8.37512 4.90626 8.37512ZM2.88501 7.93762H4.68751V6.82324H2.88501V7.93762Z"
            fill="#4F525B"/>
        <path
            d="M9.11995 8.37512H6.87964C6.82162 8.37512 6.76598 8.35207 6.72496 8.31105C6.68394 8.27002 6.66089 8.21438 6.66089 8.15637V6.60449C6.66089 6.54648 6.68394 6.49084 6.72496 6.44981C6.76598 6.40879 6.82162 6.38574 6.87964 6.38574H9.11995C9.17797 6.38574 9.23361 6.40879 9.27463 6.44981C9.31565 6.49084 9.3387 6.54648 9.3387 6.60449V8.15637C9.3387 8.21438 9.31565 8.27002 9.27463 8.31105C9.23361 8.35207 9.17797 8.37512 9.11995 8.37512ZM7.09839 7.93762H8.9012V6.82324H7.09839V7.93762Z"
            fill="#4F525B"/>
        <path
            d="M13.3337 8.37512H11.0938C11.0357 8.37512 10.9801 8.35207 10.9391 8.31105C10.898 8.27002 10.875 8.21438 10.875 8.15637V6.60449C10.875 6.54648 10.898 6.49084 10.9391 6.44981C10.9801 6.40879 11.0357 6.38574 11.0938 6.38574H13.3341C13.3921 6.38574 13.4477 6.40879 13.4887 6.44981C13.5298 6.49084 13.5528 6.54648 13.5528 6.60449V8.15637C13.5528 8.18512 13.5471 8.21359 13.5361 8.24015C13.5251 8.26671 13.509 8.29084 13.4886 8.31116C13.4683 8.33147 13.4441 8.34758 13.4176 8.35856C13.391 8.36953 13.3625 8.37516 13.3337 8.37512ZM11.3125 7.93762H13.1153V6.82324H11.3125V7.93762Z"
            fill="#4F525B"/>
        <path
            d="M4.90626 10.8986H2.66626C2.60824 10.8986 2.5526 10.8755 2.51158 10.8345C2.47056 10.7935 2.44751 10.7379 2.44751 10.6798V9.12891C2.44751 9.07089 2.47056 9.01525 2.51158 8.97423C2.5526 8.9332 2.60824 8.91016 2.66626 8.91016H4.90626C4.96428 8.91016 5.01992 8.9332 5.06094 8.97423C5.10196 9.01525 5.12501 9.07089 5.12501 9.12891V10.6798C5.12501 10.7379 5.10196 10.7935 5.06094 10.8345C5.01992 10.8755 4.96428 10.8986 4.90626 10.8986ZM2.8847 10.4611H4.68751V9.34766H2.88501L2.8847 10.4611Z"
            fill="#4F525B"/>
        <path
            d="M9.11995 10.8986H6.87964C6.82162 10.8986 6.76598 10.8755 6.72496 10.8345C6.68394 10.7935 6.66089 10.7379 6.66089 10.6798V9.12891C6.66089 9.07089 6.68394 9.01525 6.72496 8.97423C6.76598 8.9332 6.82162 8.91016 6.87964 8.91016H9.11995C9.17797 8.91016 9.23361 8.9332 9.27463 8.97423C9.31565 9.01525 9.3387 9.07089 9.3387 9.12891V10.6798C9.3387 10.7379 9.31565 10.7935 9.27463 10.8345C9.23361 10.8755 9.17797 10.8986 9.11995 10.8986ZM7.09839 10.4611H8.9012V9.34766H7.09839V10.4611Z"
            fill="#4F525B"/>
        <path
            d="M13.3337 10.8986H11.0938C11.0357 10.8986 10.9801 10.8755 10.9391 10.8345C10.898 10.7935 10.875 10.7379 10.875 10.6798V9.12891C10.875 9.07089 10.898 9.01525 10.9391 8.97423C10.9801 8.9332 11.0357 8.91016 11.0938 8.91016H13.3341C13.3921 8.91016 13.4477 8.9332 13.4887 8.97423C13.5298 9.01525 13.5528 9.07089 13.5528 9.12891V10.6798C13.5528 10.7086 13.5471 10.7371 13.5361 10.7636C13.5251 10.7902 13.509 10.8143 13.4886 10.8346C13.4683 10.855 13.4441 10.8711 13.4176 10.882C13.391 10.893 13.3625 10.8986 13.3337 10.8986ZM11.3122 10.4611H13.115V9.34766H11.3125L11.3122 10.4611Z"
            fill="#4F525B"/>
        <path
            d="M4.90626 13.423H2.66626C2.60824 13.423 2.5526 13.4 2.51158 13.3589C2.47056 13.3179 2.44751 13.2623 2.44751 13.2043V11.6533C2.44751 11.5953 2.47056 11.5397 2.51158 11.4986C2.5526 11.4576 2.60824 11.4346 2.66626 11.4346H4.90626C4.96428 11.4346 5.01992 11.4576 5.06094 11.4986C5.10196 11.5397 5.12501 11.5953 5.12501 11.6533V13.2043C5.12501 13.2623 5.10196 13.3179 5.06094 13.3589C5.01992 13.4 4.96428 13.423 4.90626 13.423ZM2.8847 12.9855H4.68751V11.8721H2.88501L2.8847 12.9855Z"
            fill="#4F525B"/>
        <path
            d="M9.11995 13.423H6.87964C6.82162 13.423 6.76598 13.4 6.72496 13.3589C6.68394 13.3179 6.66089 13.2623 6.66089 13.2043V11.6533C6.66089 11.5953 6.68394 11.5397 6.72496 11.4986C6.76598 11.4576 6.82162 11.4346 6.87964 11.4346H9.11995C9.17797 11.4346 9.23361 11.4576 9.27463 11.4986C9.31565 11.5397 9.3387 11.5953 9.3387 11.6533V13.2043C9.3387 13.2623 9.31565 13.3179 9.27463 13.3589C9.23361 13.4 9.17797 13.423 9.11995 13.423ZM7.09839 12.9855H8.9012V11.8721H7.09839V12.9855Z"
            fill="#4F525B"/>
        <path
            d="M13.3337 13.423H11.0938C11.0357 13.423 10.9801 13.4 10.9391 13.3589C10.898 13.3179 10.875 13.2623 10.875 13.2043V11.6533C10.875 11.5953 10.898 11.5397 10.9391 11.4986C10.9801 11.4576 11.0357 11.4346 11.0938 11.4346H13.3341C13.3921 11.4346 13.4477 11.4576 13.4887 11.4986C13.5298 11.5397 13.5528 11.5953 13.5528 11.6533V13.2043C13.5528 13.233 13.5471 13.2615 13.5361 13.288C13.5251 13.3146 13.509 13.3387 13.4886 13.359C13.4683 13.3794 13.4441 13.3955 13.4176 13.4064C13.391 13.4174 13.3625 13.423 13.3337 13.423ZM11.3122 12.9855H13.115V11.8721H11.3125L11.3122 12.9855Z"
            fill="#4F525B"/>
    </g>
    <defs>
        <clipPath id="clip0_38_3522">
            <rect width="16" height="16" fill="white"/>
        </clipPath>
    </defs>
</svg>
