<svg width="16" height="16" viewBox="0 0 16 16" fill="none" xmlns="http://www.w3.org/2000/svg">
    <g clip-path="url(#clip0_16_2416)">
        <path
            d="M6.33333 5.33333H1C0.448667 5.33333 0 4.88467 0 4.33333V1C0 0.448667 0.448667 0 1 0H6.33333C6.88467 0 7.33333 0.448667 7.33333 1V4.33333C7.33333 4.88467 6.88467 5.33333 6.33333 5.33333ZM1 0.666667C0.816667 0.666667 0.666667 0.816 0.666667 1V4.33333C0.666667 4.51733 0.816667 4.66667 1 4.66667H6.33333C6.51667 4.66667 6.66667 4.51733 6.66667 4.33333V1C6.66667 0.816 6.51667 0.666667 6.33333 0.666667H1Z"
            fill="currentColor"/>
        <path
            d="M6.33333 15.9998H1C0.448667 15.9998 0 15.5512 0 14.9998V7.6665C0 7.11517 0.448667 6.6665 1 6.6665H6.33333C6.88467 6.6665 7.33333 7.11517 7.33333 7.6665V14.9998C7.33333 15.5512 6.88467 15.9998 6.33333 15.9998ZM1 7.33317C0.816667 7.33317 0.666667 7.4825 0.666667 7.6665V14.9998C0.666667 15.1838 0.816667 15.3332 1 15.3332H6.33333C6.51667 15.3332 6.66667 15.1838 6.66667 14.9998V7.6665C6.66667 7.4825 6.51667 7.33317 6.33333 7.33317H1Z"
            fill="currentColor"/>
        <path
            d="M15 15.9998H9.66663C9.11529 15.9998 8.66663 15.5512 8.66663 14.9998V11.6665C8.66663 11.1152 9.11529 10.6665 9.66663 10.6665H15C15.5513 10.6665 16 11.1152 16 11.6665V14.9998C16 15.5512 15.5513 15.9998 15 15.9998ZM9.66663 11.3332C9.48329 11.3332 9.33329 11.4825 9.33329 11.6665V14.9998C9.33329 15.1838 9.48329 15.3332 9.66663 15.3332H15C15.1833 15.3332 15.3333 15.1838 15.3333 14.9998V11.6665C15.3333 11.4825 15.1833 11.3332 15 11.3332H9.66663Z"
            fill="currentColor"/>
        <path
            d="M15 9.33333H9.66663C9.11529 9.33333 8.66663 8.88467 8.66663 8.33333V1C8.66663 0.448667 9.11529 0 9.66663 0H15C15.5513 0 16 0.448667 16 1V8.33333C16 8.88467 15.5513 9.33333 15 9.33333ZM9.66663 0.666667C9.48329 0.666667 9.33329 0.816 9.33329 1V8.33333C9.33329 8.51733 9.48329 8.66667 9.66663 8.66667H15C15.1833 8.66667 15.3333 8.51733 15.3333 8.33333V1C15.3333 0.816 15.1833 0.666667 15 0.666667H9.66663Z"
            fill="currentColor"/>
    </g>
    <defs>
        <clipPath id="clip0_16_2416">
            <rect width="16" height="16" fill="currentColor"/>
        </clipPath>
    </defs>
</svg>
