<svg width="16" height="16" viewBox="0 0 16 16" fill="none" xmlns="http://www.w3.org/2000/svg">
    <path
        d="M13.2218 2.75H11.15V1.781C11.1498 1.57394 11.0674 1.37542 10.921 1.229C10.7746 1.08259 10.5761 1.00023 10.369 1H5.63098C5.42392 1.00023 5.2254 1.08259 5.07899 1.229C4.93257 1.37542 4.85021 1.57394 4.84998 1.781V2.75H2.7782C2.57115 2.75025 2.37266 2.83262 2.22627 2.97904C2.07988 3.12545 1.99754 3.32395 1.99731 3.531V4.75012C1.99732 4.81642 2.02366 4.88001 2.07054 4.92689C2.11742 4.97377 2.18101 5.00011 2.24731 5.00012H2.98552L3.33546 13.2356C3.27603 14.1694 3.9198 15.0005 4.88906 15H11.111C11.509 15.0008 11.892 14.8474 12.1794 14.572C12.4668 14.2965 12.6363 13.9204 12.6523 13.5227L13.0145 5.0001H13.7527C13.819 5.0001 13.8826 4.97376 13.9295 4.92688C13.9763 4.87999 14.0027 4.81641 14.0027 4.7501V3.531C14.0025 3.32395 13.9201 3.12545 13.7737 2.97904C13.6273 2.83262 13.4288 2.75025 13.2218 2.75ZM5.34997 1.781C5.35007 1.7065 5.37971 1.63509 5.43239 1.58241C5.48507 1.52973 5.55649 1.5001 5.63098 1.5H10.369C10.4435 1.5001 10.5149 1.52974 10.5676 1.58241C10.6203 1.63509 10.6499 1.7065 10.65 1.781V2.75H5.34997V1.781ZM12.1528 13.5015C12.142 13.7703 12.0274 14.0245 11.8331 14.2107C11.6389 14.3969 11.38 14.5006 11.111 14.5H4.88904C4.61996 14.5006 4.36113 14.3969 4.16686 14.2107C3.9726 14.0245 3.85802 13.7703 3.84717 13.5015L3.48596 5.00012H12.514L12.1528 13.5015ZM13.5027 4.50012C12.6754 4.50012 3.32521 4.50012 2.49731 4.50012V3.531C2.49739 3.45652 2.527 3.3851 2.57965 3.33242C2.63231 3.27974 2.70371 3.2501 2.7782 3.25C2.7782 3.25 11.6755 3.24997 13.2218 3.25C13.2963 3.2501 13.3677 3.27974 13.4203 3.33242C13.473 3.3851 13.5026 3.45652 13.5027 3.531V4.50012Z"
        fill="currentColor"/>
    <path
        d="M5.77317 13.2883C5.807 13.2884 5.84049 13.2815 5.8716 13.2682C5.9027 13.2549 5.93079 13.2354 5.95416 13.211C5.97753 13.1865 5.9957 13.1575 6.00756 13.1259C6.01942 13.0942 6.02473 13.0604 6.02317 13.0266L5.71519 6.44984C5.71098 6.3844 5.68124 6.32324 5.63237 6.27952C5.5835 6.2358 5.51941 6.21302 5.45391 6.2161C5.38841 6.21917 5.32674 6.24785 5.28218 6.29596C5.23762 6.34406 5.21374 6.40775 5.21569 6.47329L5.52367 13.0501C5.52669 13.1142 5.55429 13.1748 5.60074 13.2191C5.64719 13.2635 5.70894 13.2883 5.77317 13.2883Z"
        fill="currentColor"/>
    <path
        d="M10.2149 13.2883C10.2811 13.2914 10.3458 13.268 10.3948 13.2234C10.4439 13.1788 10.4732 13.1165 10.4764 13.0503L10.7843 6.47351C10.7874 6.40727 10.7641 6.34251 10.7195 6.29347C10.6748 6.24444 10.6125 6.21514 10.5463 6.21203C10.4803 6.21 10.4162 6.2337 10.3674 6.27813C10.3186 6.32255 10.289 6.38421 10.2848 6.45007L9.97684 13.0269C9.9753 13.0597 9.98023 13.0924 9.99136 13.1233C10.0025 13.1542 10.0196 13.1826 10.0417 13.2069C10.0638 13.2312 10.0905 13.2509 10.1202 13.2648C10.1499 13.2788 10.1821 13.2868 10.2149 13.2883Z"
        fill="currentColor"/>
    <path
        d="M8 13.2887C8.0663 13.2887 8.12989 13.2624 8.17677 13.2155C8.22366 13.1686 8.25 13.105 8.25 13.0387V6.46191C8.25 6.39561 8.22366 6.33202 8.17678 6.28514C8.12989 6.23825 8.0663 6.21191 8 6.21191C7.9337 6.21191 7.87011 6.23825 7.82322 6.28514C7.77634 6.33202 7.75 6.39561 7.75 6.46191V13.0387C7.75 13.105 7.77634 13.1686 7.82323 13.2155C7.87011 13.2624 7.9337 13.2887 8 13.2887Z"
        fill="currentColor"/>
</svg>
