<svg width="16" height="16" viewBox="0 0 16 16" fill="none" xmlns="http://www.w3.org/2000/svg">
    <g clip-path="url(#clip0_16_1787)">
        <path
            d="M9.92264 9.56496C9.97233 9.46733 9.99881 9.35954 10 9.25C9.99699 9.06356 9.92396 8.88507 9.79541 8.75C9.92396 8.61493 9.99699 8.43644 10 8.25C9.9984 8.13154 9.96737 8.01533 9.9097 7.91185C10.0912 7.84087 10.2459 7.71466 10.3518 7.55105C10.4577 7.38743 10.5095 7.19467 10.5 7C10.5 6.1377 9.91528 5.75 9.5 5.75C9.23995 5.7522 8.99056 5.85358 8.80274 6.03345C8.72619 5.88293 8.61208 5.75474 8.47144 5.66128C8.3308 5.56782 8.16841 5.51227 8 5.5C7.83159 5.51227 7.6692 5.56782 7.52856 5.66128C7.38792 5.75474 7.27381 5.88293 7.19727 6.03345C7.00944 5.85358 6.76005 5.7522 6.5 5.75C6.08472 5.75 5.5 6.1377 5.5 7C5.49045 7.19467 5.5423 7.38743 5.64822 7.55105C5.75414 7.71466 5.90878 7.84087 6.0903 7.91185C6.03263 8.01533 6.0016 8.13154 6 8.25C6.00301 8.43644 6.07604 8.61493 6.20459 8.75C6.07604 8.88507 6.00301 9.06356 6 9.25C6.00119 9.35954 6.02767 9.46733 6.07736 9.56496C5.43895 10.0042 4.91649 10.5917 4.5547 11.277C4.19292 11.9623 4.00259 12.7251 4 13.5C4 16 6.312 16 8 16C9.688 16 12 16 12 13.5C11.9974 12.7251 11.8071 11.9623 11.4453 11.277C11.0835 10.5917 10.5611 10.0042 9.92264 9.56496ZM6 7C6 6.3772 6.39429 6.25 6.5 6.25C6.61062 6.26271 6.71644 6.30233 6.80821 6.36541C6.89997 6.42849 6.97487 6.51309 7.02637 6.61182C7.04773 6.65667 7.08233 6.69389 7.12551 6.71847C7.16868 6.74305 7.21835 6.75379 7.26782 6.74927C7.31711 6.7458 7.36426 6.72778 7.40329 6.69749C7.44232 6.66719 7.47148 6.62599 7.48706 6.5791C7.52783 6.45679 7.73438 6 8 6C8.2583 6 8.46216 6.4292 8.51294 6.5791C8.52871 6.62571 8.55785 6.66664 8.59674 6.69678C8.63563 6.72692 8.68253 6.74494 8.7316 6.74858C8.78066 6.75223 8.82971 6.74134 8.87263 6.71728C8.91554 6.69321 8.95042 6.65704 8.9729 6.61328C9.02431 6.51421 9.09926 6.42927 9.19116 6.36593C9.28307 6.30259 9.38912 6.26278 9.5 6.25C9.60571 6.25 10 6.3772 10 7C10.0043 7.06687 9.99423 7.13389 9.97053 7.19657C9.94684 7.25926 9.91004 7.31616 9.8626 7.36349C9.81516 7.41081 9.75816 7.44747 9.69542 7.47101C9.63268 7.49455 9.56564 7.50444 9.49878 7.5H6.50195C6.43504 7.5045 6.36794 7.49467 6.30513 7.47117C6.24232 7.44766 6.18525 7.41102 6.13773 7.36369C6.09022 7.31636 6.05335 7.25943 6.0296 7.19671C6.00585 7.134 5.99576 7.06693 6 7ZM9.25 8.5H6.75C6.6837 8.5 6.62011 8.47366 6.57322 8.42678C6.52634 8.37989 6.5 8.3163 6.5 8.25C6.5 8.1837 6.52634 8.12011 6.57322 8.07322C6.62011 8.02634 6.6837 8 6.75 8H9.25C9.3163 8 9.37989 8.02634 9.42678 8.07322C9.47366 8.12011 9.5 8.1837 9.5 8.25C9.5 8.3163 9.47366 8.37989 9.42678 8.42678C9.37989 8.47366 9.3163 8.5 9.25 8.5ZM9.5 9.25C9.49593 9.31497 9.46829 9.37622 9.42225 9.42225C9.37622 9.46829 9.31497 9.49593 9.25 9.5H6.75C6.6837 9.5 6.62011 9.47366 6.57322 9.42678C6.52634 9.37989 6.5 9.3163 6.5 9.25C6.5 9.1837 6.52634 9.12011 6.57322 9.07322C6.62011 9.02634 6.6837 9 6.75 9H9.25C9.31497 9.00407 9.37622 9.03171 9.42225 9.07775C9.46829 9.12378 9.49593 9.18503 9.5 9.25ZM8 15.5C5.67871 15.5 4.5 15.1907 4.5 13.5C4.50117 12.8132 4.66736 12.1368 4.98457 11.5277C5.30178 10.9186 5.76073 10.3947 6.32275 10H9.67725C10.2393 10.3947 10.6982 10.9186 11.0154 11.5277C11.3326 12.1368 11.4988 12.8132 11.5 13.5C11.5 15.1907 10.3213 15.5 8 15.5Z"
            fill="#040304"/>
        <path
            d="M9 11.5C9.0663 11.5 9.12989 11.4737 9.17678 11.4268C9.22366 11.3799 9.25 11.3163 9.25 11.25C9.25 11.1837 9.22366 11.1201 9.17678 11.0732C9.12989 11.0263 9.0663 11 9 11H8.25V10.5C8.25 10.4337 8.22366 10.3701 8.17678 10.3232C8.12989 10.2763 8.0663 10.25 8 10.25C7.9337 10.25 7.87011 10.2763 7.82322 10.3232C7.77634 10.3701 7.75 10.4337 7.75 10.5V11C7.48478 11 7.23043 11.1054 7.04289 11.2929C6.85536 11.4804 6.75 11.7348 6.75 12C6.75 12.2652 6.85536 12.5196 7.04289 12.7071C7.23043 12.8946 7.48478 13 7.75 13V14H7C6.9337 14 6.87011 14.0263 6.82322 14.0732C6.77634 14.1201 6.75 14.1837 6.75 14.25C6.75 14.3163 6.77634 14.3799 6.82322 14.4268C6.87011 14.4737 6.9337 14.5 7 14.5H7.75V15C7.75 15.0663 7.77634 15.1299 7.82322 15.1768C7.87011 15.2237 7.9337 15.25 8 15.25C8.0663 15.25 8.12989 15.2237 8.17678 15.1768C8.22366 15.1299 8.25 15.0663 8.25 15V14.5C8.51522 14.5 8.76957 14.3946 8.95711 14.2071C9.14464 14.0196 9.25 13.7652 9.25 13.5C9.25 13.2348 9.14464 12.9804 8.95711 12.7929C8.76957 12.6054 8.51522 12.5 8.25 12.5V11.5H9ZM7.75 12.5C7.61739 12.5 7.49021 12.4473 7.39645 12.3536C7.30268 12.2598 7.25 12.1326 7.25 12C7.25 11.8674 7.30268 11.7402 7.39645 11.6464C7.49021 11.5527 7.61739 11.5 7.75 11.5V12.5ZM8.75 13.5C8.7564 13.5673 8.74786 13.6351 8.725 13.6987C8.70213 13.7622 8.66551 13.82 8.61773 13.8677C8.56996 13.9155 8.51223 13.9521 8.44866 13.975C8.38509 13.9979 8.31725 14.0064 8.25 14V13C8.31725 12.9936 8.38509 13.0021 8.44866 13.025C8.51223 13.0479 8.56996 13.0845 8.61773 13.1323C8.66551 13.18 8.70213 13.2378 8.725 13.3013C8.74786 13.3649 8.7564 13.4327 8.75 13.5Z"
            fill="#040304"/>
        <path
            d="M15.9107 6.55847L8.16063 0.0584728C8.11562 0.020703 8.05875 0 7.99999 0C7.94123 0 7.88435 0.020703 7.83934 0.0584728L0.0892834 6.55847C0.0499913 6.59145 0.0217947 6.63572 0.00851839 6.68527C-0.00475788 6.73482 -0.00247117 6.78726 0.0150683 6.83546C0.0326078 6.88367 0.0645512 6.92532 0.106565 6.95475C0.148579 6.98418 0.19863 6.99998 0.249928 7H1.99994V15.75C1.99994 15.8163 2.02628 15.8799 2.07317 15.9268C2.12005 15.9737 2.18364 16 2.24994 16C2.31625 16 2.37984 15.9737 2.42672 15.9268C2.4736 15.8799 2.49994 15.8163 2.49994 15.75V6.75C2.49995 6.71717 2.49349 6.68465 2.48093 6.65432C2.46837 6.62398 2.44996 6.59642 2.42674 6.5732C2.40352 6.54999 2.37596 6.53157 2.34562 6.51901C2.31529 6.50645 2.28278 6.49999 2.24994 6.5H0.936938L7.99999 0.576295L15.063 6.5H13.75C13.7172 6.49999 13.6847 6.50645 13.6544 6.51901C13.624 6.53157 13.5965 6.54999 13.5732 6.5732C13.55 6.59642 13.5316 6.62398 13.5191 6.65432C13.5065 6.68465 13.5 6.71717 13.5 6.75V15.75C13.5 15.8163 13.5264 15.8799 13.5733 15.9268C13.6201 15.9737 13.6837 16 13.75 16C13.8163 16 13.8799 15.9737 13.9268 15.9268C13.9737 15.8799 14 15.8163 14 15.75V7H15.7501C15.8014 6.99998 15.8514 6.98418 15.8934 6.95475C15.9354 6.92532 15.9674 6.88367 15.9849 6.83546C16.0025 6.78726 16.0047 6.73482 15.9915 6.68527C15.9782 6.63572 15.95 6.59145 15.9107 6.55847Z"
            fill="#040304"/>
        <path
            d="M8.16183 1.55951C8.11665 1.52109 8.05928 1.5 7.99997 1.5C7.94066 1.5 7.88329 1.52109 7.8381 1.55951L2.83806 5.80951C2.81305 5.83077 2.79248 5.85674 2.77751 5.88595C2.76254 5.91516 2.75347 5.94703 2.75082 5.97975C2.74817 6.01246 2.75198 6.04538 2.76205 6.07662C2.77212 6.10786 2.78825 6.13681 2.8095 6.16181C2.85244 6.21232 2.91367 6.2437 2.97974 6.24906C3.01246 6.25171 3.04537 6.24789 3.07661 6.23782C3.10785 6.22775 3.1368 6.21163 3.16181 6.19037L7.99997 2.07806L12.8381 6.19037C12.8631 6.21163 12.8921 6.22775 12.9233 6.23782C12.9546 6.24789 12.9875 6.25171 13.0202 6.24906C13.0529 6.2464 13.0848 6.23734 13.114 6.22237C13.1432 6.2074 13.1692 6.18682 13.1904 6.16181C13.2117 6.13681 13.2278 6.10786 13.2379 6.07662C13.248 6.04538 13.2518 6.01246 13.2491 5.97975C13.2465 5.94703 13.2374 5.91516 13.2224 5.88595C13.2075 5.85674 13.1869 5.83077 13.1619 5.80951L8.16183 1.55951Z"
            fill="#040304"/>
    </g>
    <defs>
        <clipPath id="clip0_16_1787">
            <rect width="16" height="16" fill="white"/>
        </clipPath>
    </defs>
</svg>
