<svg width="14" height="16" viewBox="0 0 14 16" xmlns="http://www.w3.org/2000/svg">
    <g clip-path="url(#clip0_16_1658)">
        <path
            d="M11.7396 0H2.26042C1.4965 0 0.875 0.512571 0.875 1.14286V12.7813C0.877149 12.9012 0.906537 13.0191 0.961028 13.1265C1.01552 13.2339 1.09375 13.328 1.19002 13.4021L4.13631 15.7637C4.33688 15.9195 4.58612 16.003 4.84212 16H11.7396C12.5035 16 13.125 15.4874 13.125 14.8571V1.14286C13.125 0.512571 12.5035 0 11.7396 0ZM1.69318 13.067H4.13773C4.37073 13.067 4.57523 13.2006 4.57523 13.3527V15.3576C4.55211 15.3451 1.69318 13.067 1.69318 13.067ZM12.5417 14.8571C12.5417 15.1669 12.1742 15.4286 11.7396 15.4286H5.15857V13.3527C5.1375 13.1071 5.01859 12.8795 4.82756 12.7191C4.63653 12.5587 4.38873 12.4784 4.13773 12.4955H1.45833V1.14286C1.45833 0.833143 1.82577 0.571429 2.26042 0.571429H11.7396C12.1742 0.571429 12.5417 0.833143 12.5417 1.14286V14.8571Z"
            fill="currentColor"/>
        <path
            d="M3.89164 6.97245C3.89313 7.04726 3.92452 7.11852 3.97906 7.1709C4.03359 7.22329 4.10693 7.25264 4.18332 7.25264C4.2597 7.25263 4.33304 7.22328 4.38757 7.17089C4.44211 7.1185 4.47349 7.04724 4.47497 6.97243V6.41952C4.74587 6.36213 4.98476 6.20688 5.14407 5.98471C5.30338 5.76253 5.37141 5.48973 5.33463 5.22063C5.29785 4.95152 5.15894 4.70586 4.94558 4.53257C4.73221 4.35928 4.46005 4.27107 4.18328 4.28551C4.10982 4.2928 4.03561 4.28492 3.96545 4.26237C3.89529 4.23983 3.83073 4.20312 3.77595 4.15462C3.72117 4.10612 3.67739 4.0469 3.64742 3.9808C3.61745 3.91469 3.60197 3.84316 3.60197 3.77083C3.60198 3.6985 3.61746 3.62697 3.64744 3.56086C3.67741 3.49476 3.72121 3.43555 3.77599 3.38705C3.83078 3.33856 3.89533 3.30185 3.9655 3.27932C4.03566 3.25678 4.10987 3.24891 4.18333 3.25621C4.33097 3.24852 4.47572 3.29827 4.58609 3.39463C4.69646 3.491 4.7635 3.62616 4.77262 3.77071C4.77411 3.84553 4.8055 3.91678 4.86004 3.96917C4.91458 4.02156 4.98791 4.05091 5.0643 4.0509C5.14068 4.0509 5.21402 4.02155 5.26855 3.96916C5.32309 3.91676 5.35447 3.84551 5.35596 3.7707C5.35021 3.5246 5.26024 3.28753 5.10048 3.09752C4.94072 2.90752 4.72044 2.77558 4.47497 2.7229V2.16999C4.47497 2.09422 4.44425 2.02154 4.38955 1.96796C4.33485 1.91438 4.26066 1.88428 4.18331 1.88428C4.10595 1.88428 4.03177 1.91438 3.97707 1.96796C3.92237 2.02154 3.89164 2.09422 3.89164 2.16999V2.72287C3.64611 2.7755 3.42576 2.90741 3.26594 3.09743C3.10613 3.28746 3.01612 3.52457 3.01038 3.77072C3.01941 4.06695 3.14793 4.34759 3.36778 4.55118C3.58762 4.75478 3.88088 4.86472 4.18331 4.85693C4.25675 4.84967 4.33094 4.85757 4.40107 4.88013C4.4712 4.90269 4.53573 4.9394 4.59049 4.9879C4.64524 5.03639 4.68901 5.0956 4.71896 5.16169C4.74891 5.22778 4.76439 5.29928 4.76439 5.3716C4.76439 5.44391 4.74891 5.51541 4.71895 5.5815C4.68899 5.64759 4.64523 5.70679 4.59047 5.75529C4.53571 5.80378 4.47118 5.84049 4.40105 5.86304C4.33091 5.8856 4.25673 5.8935 4.18328 5.88623C4.03562 5.89392 3.89083 5.84418 3.78041 5.74782C3.67 5.65147 3.6029 5.5163 3.59371 5.37172C3.59371 5.29595 3.56298 5.22327 3.50828 5.16969C3.45358 5.11611 3.3794 5.08601 3.30204 5.08601C3.22469 5.08601 3.1505 5.11611 3.0958 5.16969C3.04111 5.22327 3.01038 5.29595 3.01038 5.37172C3.01612 5.61786 3.10613 5.85498 3.26594 6.045C3.42576 6.23502 3.64611 6.36693 3.89164 6.41956V6.97245Z"
            fill="currentColor"/>
        <path
            d="M10.6979 4.15137H7.19765C7.12128 4.15283 7.04854 4.18357 6.99506 4.237C6.94158 4.29042 6.91162 4.36227 6.91162 4.43709C6.91162 4.51192 6.94159 4.58376 6.99507 4.63718C7.04856 4.6906 7.1213 4.72134 7.19767 4.7228H10.6979C10.7743 4.72134 10.847 4.69059 10.9005 4.63717C10.954 4.58375 10.984 4.51191 10.984 4.43708C10.984 4.36226 10.954 4.29041 10.9005 4.23699C10.847 4.18357 10.7743 4.15283 10.6979 4.15137Z"
            fill="currentColor"/>
        <path
            d="M10.6979 5.9082H7.19765C7.12128 5.90966 7.04854 5.94041 6.99506 5.99383C6.94158 6.04726 6.91162 6.1191 6.91162 6.19393C6.91162 6.26875 6.94159 6.34059 6.99507 6.39401C7.04856 6.44744 7.1213 6.47818 7.19767 6.47963H10.6979C10.7743 6.47817 10.847 6.44743 10.9005 6.39401C10.954 6.34058 10.984 6.26874 10.984 6.19392C10.984 6.11909 10.954 6.04725 10.9005 5.99383C10.847 5.9404 10.7743 5.90966 10.6979 5.9082Z"
            fill="currentColor"/>
        <path
            d="M10.6979 7.66504H7.19765C7.12128 7.6665 7.04854 7.69725 6.99506 7.75067C6.94158 7.8041 6.91162 7.87594 6.91162 7.95076C6.91162 8.02559 6.94159 8.09743 6.99507 8.15085C7.04856 8.20427 7.1213 8.23501 7.19767 8.23647H10.6979C10.7743 8.23501 10.847 8.20427 10.9005 8.15084C10.954 8.09742 10.984 8.02558 10.984 7.95075C10.984 7.87593 10.954 7.80409 10.9005 7.75066C10.847 7.69724 10.7743 7.6665 10.6979 7.66504Z"
            fill="currentColor"/>
        <path
            d="M10.6979 12.9355H7.19765C7.12128 12.937 7.04854 12.9678 6.99506 13.0212C6.94158 13.0746 6.91162 13.1464 6.91162 13.2213C6.91162 13.2961 6.94159 13.3679 6.99507 13.4214C7.04856 13.4748 7.1213 13.5055 7.19767 13.507H10.6979C10.7743 13.5055 10.847 13.4748 10.9005 13.4214C10.954 13.3679 10.984 13.2961 10.984 13.2213C10.984 13.1464 10.954 13.0746 10.9005 13.0212C10.847 12.9677 10.7743 12.937 10.6979 12.9355Z"
            fill="currentColor"/>
        <path
            d="M10.6979 2.39453H7.19765C7.12128 2.39599 7.04854 2.42674 6.99506 2.48016C6.94158 2.53359 6.91162 2.60543 6.91162 2.68026C6.91162 2.75508 6.94159 2.82692 6.99507 2.88034C7.04856 2.93376 7.1213 2.9645 7.19767 2.96596H10.6979C10.7743 2.9645 10.847 2.93376 10.9005 2.88034C10.954 2.82691 10.984 2.75507 10.984 2.68025C10.984 2.60542 10.954 2.53358 10.9005 2.48016C10.847 2.42673 10.7743 2.39599 10.6979 2.39453Z"
            fill="currentColor"/>
        <path
            d="M10.6979 9.42188H3.69762C3.62128 9.42337 3.54858 9.45414 3.49513 9.50756C3.44168 9.56098 3.41174 9.6328 3.41174 9.7076C3.41175 9.7824 3.44169 9.85422 3.49514 9.90764C3.5486 9.96105 3.6213 9.99181 3.69764 9.9933H10.6979C10.7743 9.99181 10.847 9.96105 10.9004 9.90763C10.9539 9.85421 10.9838 9.78239 10.9838 9.70759C10.9838 9.63279 10.9539 9.56097 10.9004 9.50755C10.847 9.45413 10.7743 9.42337 10.6979 9.42188Z"
            fill="currentColor"/>
        <path
            d="M10.6979 11.1787H3.69765C3.62128 11.1802 3.54854 11.2109 3.49506 11.2643C3.44158 11.3178 3.41162 11.3896 3.41162 11.4644C3.41162 11.5393 3.44159 11.6111 3.49507 11.6645C3.54856 11.7179 3.6213 11.7487 3.69767 11.7501H10.6979C10.7743 11.7486 10.847 11.7179 10.9004 11.6645C10.9539 11.611 10.9838 11.5392 10.9838 11.4644C10.9838 11.3896 10.9539 11.3178 10.9004 11.2644C10.847 11.211 10.7743 11.1802 10.6979 11.1787Z"
            fill="currentColor"/>
    </g>
    <defs>
        <clipPath id="clip0_16_1658">
            <rect width="14" height="16"/>
        </clipPath>
    </defs>
</svg>
