<svg width="16" height="16" viewBox="0 0 16 16" fill="none" xmlns="http://www.w3.org/2000/svg">
    <path
        d="M15.0199 8.35333L12.3533 11.02C12.2595 11.1136 12.1324 11.1662 11.9999 11.1662C11.8674 11.1662 11.7403 11.1136 11.6466 11.02C11.553 10.9263 11.5004 10.7992 11.5004 10.6667C11.5004 10.5342 11.553 10.4071 11.6466 10.3133L13.4599 8.5H3.99992C3.86731 8.5 3.74013 8.44732 3.64637 8.35355C3.5526 8.25979 3.49992 8.13261 3.49992 8C3.49992 7.86739 3.5526 7.74022 3.64637 7.64645C3.74013 7.55268 3.86731 7.5 3.99992 7.5H13.4599L11.6466 5.68667C11.5583 5.59188 11.5102 5.46652 11.5125 5.33699C11.5148 5.20745 11.5672 5.08386 11.6588 4.99225C11.7504 4.90064 11.874 4.84817 12.0036 4.84588C12.1331 4.8436 12.2585 4.89168 12.3533 4.98L15.0199 7.64667C15.1136 7.74042 15.1661 7.8675 15.1661 8C15.1661 8.1325 15.1136 8.25958 15.0199 8.35333ZM9.33325 10.8333C9.20118 10.8351 9.075 10.8883 8.98161 10.9817C8.88821 11.0751 8.83498 11.2013 8.83325 11.3333V12.6667C8.83325 12.8877 8.74545 13.0996 8.58917 13.2559C8.43289 13.4122 8.22093 13.5 7.99992 13.5H2.66659C2.44557 13.5 2.23361 13.4122 2.07733 13.2559C1.92105 13.0996 1.83325 12.8877 1.83325 12.6667V3.33333C1.83325 3.11232 1.92105 2.90036 2.07733 2.74408C2.23361 2.5878 2.44557 2.5 2.66659 2.5H7.99992C8.22093 2.5 8.43289 2.5878 8.58917 2.74408C8.74545 2.90036 8.83325 3.11232 8.83325 3.33333V4.66667C8.83325 4.79927 8.88593 4.92645 8.9797 5.02022C9.07347 5.11399 9.20064 5.16667 9.33325 5.16667C9.46586 5.16667 9.59304 5.11399 9.68681 5.02022C9.78057 4.92645 9.83325 4.79927 9.83325 4.66667V3.33333C9.83325 2.8471 9.6401 2.38079 9.29628 2.03697C8.95247 1.69315 8.48615 1.5 7.99992 1.5H2.66659C2.18036 1.5 1.71404 1.69315 1.37022 2.03697C1.02641 2.38079 0.833252 2.8471 0.833252 3.33333V12.6667C0.833252 13.1529 1.02641 13.6192 1.37022 13.963C1.71404 14.3068 2.18036 14.5 2.66659 14.5H7.99992C8.48615 14.5 8.95247 14.3068 9.29628 13.963C9.6401 13.6192 9.83325 13.1529 9.83325 12.6667V11.3333C9.83153 11.2013 9.77829 11.0751 9.6849 10.9817C9.5915 10.8883 9.46532 10.8351 9.33325 10.8333Z"
        fill="#040304"/>
</svg>
