<svg width="16" height="16" viewBox="0 0 16 16" fill="none" xmlns="http://www.w3.org/2000/svg">
    <path
        d="M13.5 1H2.5C2.10231 1.00043 1.72103 1.15861 1.43982 1.43982C1.15861 1.72103 1.00043 2.10231 1 2.5V13.5C1.00043 13.8977 1.15861 14.279 1.43982 14.5602C1.72103 14.8414 2.10231 14.9996 2.5 15H13.5C13.8977 14.9996 14.279 14.8414 14.5602 14.5602C14.8414 14.279 14.9996 13.8977 15 13.5V2.5C14.9996 2.10231 14.8414 1.72103 14.5602 1.43982C14.279 1.15861 13.8977 1.00043 13.5 1ZM2.5 1.5H13.5C13.7651 1.50026 14.0193 1.60571 14.2068 1.79319C14.3943 1.98066 14.4997 2.23486 14.5 2.5V4.75H1.5V2.5C1.50026 2.23486 1.60571 1.98066 1.79319 1.79319C1.98066 1.60571 2.23486 1.50026 2.5 1.5ZM13.5 14.5H2.5C2.23486 14.4997 1.98066 14.3943 1.79319 14.2068C1.60571 14.0193 1.50026 13.7651 1.5 13.5V5.25H14.5V13.5C14.4997 13.7651 14.3943 14.0193 14.2068 14.2068C14.0193 14.3943 13.7651 14.4997 13.5 14.5Z"
        fill="currentColor"/>
    <path
        d="M8.42554 4.14209C8.64829 4.13972 8.8611 4.04958 9.01777 3.89124C9.17445 3.73289 9.26232 3.51913 9.26232 3.29637C9.26232 3.07362 9.17443 2.85986 9.01776 2.70152C8.86108 2.54318 8.64826 2.45304 8.42552 2.45068C8.20278 2.45305 7.98996 2.54319 7.83329 2.70154C7.67662 2.85988 7.58874 3.07364 7.58875 3.2964C7.58875 3.51915 7.67663 3.73291 7.83331 3.89125C7.98998 4.04959 8.2028 4.13973 8.42554 4.14209ZM8.42554 2.95068C8.51625 2.95217 8.60274 2.98924 8.66636 3.05392C8.72998 3.11859 8.76563 3.20567 8.76563 3.29639C8.76563 3.38711 8.72997 3.4742 8.66635 3.53886C8.60273 3.60353 8.51624 3.64061 8.42553 3.64209C8.33482 3.6406 8.24833 3.60353 8.18471 3.53885C8.12109 3.47418 8.08544 3.3871 8.08544 3.29638C8.08544 3.20566 8.1211 3.11857 8.18472 3.05391C8.24835 2.98924 8.33484 2.95216 8.42554 2.95068Z"
        fill="currentColor"/>
    <path
        d="M10.617 4.14209C10.8397 4.13972 11.0525 4.04958 11.2092 3.89124C11.3659 3.73289 11.4537 3.51913 11.4537 3.29637C11.4537 3.07362 11.3658 2.85986 11.2092 2.70152C11.0525 2.54318 10.8397 2.45304 10.6169 2.45068C10.3942 2.45305 10.1814 2.54319 10.0247 2.70154C9.86802 2.85988 9.78015 3.07364 9.78015 3.2964C9.78015 3.51915 9.86804 3.73291 10.0247 3.89125C10.1814 4.04959 10.3942 4.13973 10.617 4.14209ZM10.617 2.95068C10.7077 2.95217 10.7941 2.98924 10.8578 3.05392C10.9214 3.11859 10.957 3.20567 10.957 3.29639C10.957 3.38711 10.9214 3.4742 10.8578 3.53886C10.7941 3.60353 10.7076 3.64061 10.6169 3.64209C10.5262 3.6406 10.4397 3.60353 10.3761 3.53885C10.3125 3.47418 10.2768 3.3871 10.2768 3.29638C10.2768 3.20566 10.3125 3.11857 10.3761 3.05391C10.4398 2.98924 10.5262 2.95216 10.617 2.95068Z"
        fill="currentColor"/>
    <path
        d="M12.8086 4.14209C13.0313 4.13972 13.2442 4.04958 13.4008 3.89123C13.5575 3.73289 13.6454 3.51913 13.6454 3.29637C13.6454 3.07362 13.5575 2.85986 13.4008 2.70152C13.2441 2.54318 13.0313 2.45304 12.8086 2.45068C12.5858 2.45305 12.373 2.54319 12.2163 2.70154C12.0597 2.85988 11.9718 3.07365 11.9718 3.2964C11.9718 3.51915 12.0597 3.73291 12.2164 3.89125C12.373 4.04959 12.5859 4.13973 12.8086 4.14209ZM12.8086 2.95068C12.8993 2.95217 12.9858 2.98924 13.0494 3.05392C13.113 3.11859 13.1487 3.20567 13.1487 3.29639C13.1487 3.38711 13.113 3.4742 13.0494 3.53886C12.9858 3.60353 12.8993 3.64061 12.8086 3.64209C12.7179 3.6406 12.6314 3.60353 12.5678 3.53885C12.5042 3.47418 12.4685 3.3871 12.4685 3.29638C12.4685 3.20566 12.5042 3.11857 12.5678 3.05391C12.6314 2.98924 12.7179 2.95216 12.8086 2.95068Z"
        fill="currentColor"/>
    <path
        d="M5.75711 9.26979C5.84899 9.1536 5.91173 9.0171 5.94006 8.8717C5.9684 8.7263 5.96153 8.57623 5.92001 8.43404C5.87849 8.29184 5.80354 8.16165 5.70141 8.05435C5.59929 7.94705 5.47296 7.86575 5.33299 7.81725C5.19302 7.76876 5.04348 7.75447 4.89686 7.77559C4.75024 7.79671 4.6108 7.85262 4.49021 7.93865C4.36962 8.02468 4.27137 8.13833 4.20368 8.27009C4.136 8.40185 4.10083 8.54791 4.10113 8.69604C4.10206 8.91588 4.1816 9.12815 4.32538 9.29446C4.04383 9.42572 3.80923 9.64008 3.65317 9.90869C3.49711 10.1773 3.42707 10.4873 3.45248 10.7969C3.4526 10.9294 3.50529 11.0564 3.59898 11.1501C3.69267 11.2438 3.81971 11.2965 3.95221 11.2966H6.18854C6.32105 11.2965 6.44809 11.2438 6.54178 11.1501C6.63547 11.0564 6.68816 10.9294 6.68829 10.7969C6.71431 10.4766 6.63821 10.1563 6.47092 9.88197C6.30363 9.60762 6.05375 9.39332 5.75711 9.26979ZM5.03106 8.2661C5.14407 8.26759 5.25195 8.31353 5.33133 8.39397C5.41072 8.47442 5.45523 8.58289 5.45523 8.69591C5.45523 8.80893 5.41072 8.9174 5.33133 8.99785C5.25195 9.07829 5.14407 9.12423 5.03106 9.12573C4.91805 9.12423 4.81017 9.07829 4.73078 8.99785C4.6514 8.9174 4.60688 8.80893 4.60688 8.69591C4.60688 8.58289 4.6514 8.47442 4.73078 8.39397C4.81017 8.31353 4.91805 8.26759 5.03106 8.2661ZM3.95245 10.7968C3.84214 9.22846 6.31453 9.26406 6.18877 10.7966L3.95245 10.7968Z"
        fill="currentColor"/>
    <path
        d="M5.07031 6.42773C4.24751 6.4287 3.45868 6.75598 2.87687 7.33779C2.29505 7.9196 1.96777 8.70843 1.9668 9.53123C2.13742 13.6484 8.00383 13.6472 8.17384 9.53121C8.17286 8.70841 7.84557 7.91959 7.26375 7.33778C6.68194 6.75598 5.89311 6.4287 5.07031 6.42773ZM5.07031 12.1348C4.38006 12.134 3.7183 11.8594 3.23022 11.3713C2.74213 10.8832 2.46758 10.2215 2.4668 9.53123C2.60986 6.07733 7.5313 6.07833 7.67383 9.53125C7.67304 10.2215 7.39848 10.8833 6.9104 11.3713C6.42232 11.8594 5.76056 12.134 5.07031 12.1348Z"
        fill="currentColor"/>
    <path
        d="M9.68487 7.25H12.6849C12.7503 7.24872 12.8127 7.22182 12.8585 7.17507C12.9044 7.12833 12.93 7.06546 12.93 6.99999C12.93 6.93452 12.9044 6.87166 12.8585 6.82492C12.8127 6.77817 12.7503 6.75127 12.6849 6.75H9.68487C9.61941 6.75128 9.55706 6.77818 9.51122 6.82492C9.46538 6.87167 9.4397 6.93453 9.4397 7C9.4397 7.06547 9.46538 7.12833 9.51122 7.17508C9.55706 7.22182 9.61941 7.24872 9.68487 7.25Z"
        fill="currentColor"/>
    <path
        d="M9.71075 8.33838C9.64526 8.33962 9.58288 8.36651 9.53701 8.41326C9.49115 8.46001 9.46545 8.52289 9.46545 8.58839C9.46546 8.65388 9.49116 8.71676 9.53703 8.76351C9.5829 8.81026 9.64528 8.83714 9.71076 8.83838H11.659C11.7253 8.83838 11.7889 8.81204 11.8358 8.76516C11.8826 8.71827 11.909 8.65468 11.909 8.58838C11.909 8.52207 11.8826 8.45849 11.8358 8.4116C11.7889 8.36472 11.7253 8.33838 11.659 8.33838H9.71075Z"
        fill="currentColor"/>
    <path
        d="M13.6849 9.75H9.68486C9.6194 9.75128 9.55706 9.77818 9.51121 9.82493C9.46537 9.87167 9.4397 9.93453 9.4397 10C9.4397 10.0655 9.46538 10.1283 9.51122 10.1751C9.55707 10.2218 9.61942 10.2487 9.68488 10.25H13.6849C13.7503 10.2487 13.8127 10.2218 13.8585 10.1751C13.9044 10.1283 13.93 10.0655 13.93 10C13.93 9.93453 13.9044 9.87167 13.8585 9.82492C13.8127 9.77818 13.7503 9.75128 13.6849 9.75Z"
        fill="currentColor"/>
    <path
        d="M12.4561 12C12.4561 11.9672 12.4496 11.9346 12.4371 11.9043C12.4245 11.874 12.4061 11.8464 12.3829 11.8232C12.3597 11.8 12.3321 11.7815 12.3017 11.769C12.2714 11.7564 12.2389 11.75 12.2061 11.75H9.20605C9.13975 11.75 9.07616 11.7763 9.02928 11.8232C8.98239 11.8701 8.95605 11.9337 8.95605 12C8.95605 12.0663 8.98239 12.1299 9.02928 12.1768C9.07616 12.2237 9.13975 12.25 9.20605 12.25H12.2061C12.2389 12.25 12.2714 12.2436 12.3017 12.231C12.3321 12.2185 12.3597 12.2 12.3829 12.1768C12.4061 12.1536 12.4245 12.126 12.4371 12.0957C12.4496 12.0654 12.4561 12.0328 12.4561 12Z"
        fill="currentColor"/>
    <path
        d="M13.159 12.877H10.159C10.0935 12.8782 10.0312 12.9051 9.98533 12.9519C9.93949 12.9986 9.91382 13.0615 9.91382 13.127C9.91382 13.1924 9.9395 13.2553 9.98535 13.302C10.0312 13.3488 10.0935 13.3757 10.159 13.377H13.159C13.2244 13.3757 13.2868 13.3488 13.3326 13.302C13.3785 13.2553 13.4042 13.1924 13.4042 13.127C13.4042 13.0615 13.3785 12.9986 13.3326 12.9519C13.2868 12.9051 13.2244 12.8782 13.159 12.877Z"
        fill="currentColor"/>
</svg>
