<svg width="16" height="16" viewBox="0 0 16 16" fill="none" xmlns="http://www.w3.org/2000/svg">
    <path
        d="M12.9668 1H3.0332C2.7018 1.00039 2.38409 1.13221 2.14975 1.36655C1.91541 1.60088 1.78359 1.9186 1.7832 2.25V13.75C1.78359 14.0814 1.91541 14.3991 2.14975 14.6335C2.38409 14.8678 2.7018 14.9996 3.0332 15H12.9668C13.2982 14.9996 13.6159 14.8678 13.8503 14.6335C14.0846 14.3991 14.2164 14.0814 14.2168 13.75V2.25C14.2164 1.9186 14.0846 1.60088 13.8503 1.36655C13.6159 1.13221 13.2982 1.00039 12.9668 1ZM13.7168 13.75C13.7166 13.9488 13.6375 14.1395 13.4969 14.2801C13.3563 14.4207 13.1656 14.4998 12.9668 14.5H3.0332C2.83436 14.4998 2.64372 14.4207 2.50311 14.2801C2.36251 14.1395 2.28342 13.9488 2.2832 13.75V2.25C2.28342 2.05115 2.36251 1.86051 2.50311 1.71991C2.64372 1.5793 2.83436 1.50022 3.0332 1.5H12.9668C13.1656 1.50022 13.3563 1.5793 13.4969 1.71991C13.6375 1.86051 13.7166 2.05115 13.7168 2.25V13.75Z"
        fill="#040304"/>
    <path
        d="M6.67405 7.13001H7.74998V7.60828C7.74998 7.67458 7.77632 7.73817 7.8232 7.78505C7.87009 7.83194 7.93368 7.85828 7.99998 7.85828C8.06629 7.85828 8.12987 7.83194 8.17676 7.78505C8.22364 7.73817 8.24998 7.67458 8.24998 7.60828V7.12063C9.01667 7.0524 9.58158 6.62808 9.55882 6.07557C9.55882 5.55305 8.99794 5.13564 8.24998 5.07201V4.03688H9.32591C9.39157 4.0359 9.45421 4.00913 9.5003 3.96235C9.54639 3.91558 9.57222 3.85254 9.57222 3.78687C9.57222 3.7212 9.54638 3.65817 9.50029 3.61139C9.4542 3.56462 9.39156 3.53785 9.3259 3.53688H8.24998V3.05859C8.24998 2.99229 8.22364 2.9287 8.17676 2.88182C8.12987 2.83493 8.06629 2.80859 7.99998 2.80859C7.93368 2.80859 7.87009 2.83493 7.8232 2.88182C7.77632 2.9287 7.74998 2.99229 7.74998 3.05859V3.55307C7.03673 3.63565 6.50975 4.04334 6.50975 4.54981C6.50975 5.05628 7.03673 5.46385 7.74998 5.54643V6.63001H6.67405C6.60839 6.63098 6.54575 6.65775 6.49966 6.70453C6.45357 6.7513 6.42773 6.81434 6.42773 6.88001C6.42773 6.94567 6.45357 7.00871 6.49966 7.05549C6.54575 7.10226 6.60839 7.12903 6.67405 7.13001ZM9.05882 6.07556C9.07974 6.33261 8.74625 6.5547 8.24998 6.61849V5.57414C8.72395 5.62715 9.05882 5.86218 9.05882 6.07556ZM7.00975 4.54981C7.00975 4.3471 7.31358 4.12653 7.74998 4.05931V5.04021C7.31358 4.97296 7.00975 4.75242 7.00975 4.54981Z"
        fill="#040304"/>
    <path
        d="M12.1767 9.90674H3.82322C3.75756 9.90771 3.69492 9.93448 3.64883 9.98126C3.60274 10.028 3.5769 10.0911 3.5769 10.1567C3.5769 10.2224 3.60274 10.2854 3.64883 10.3322C3.69492 10.379 3.75756 10.4058 3.82322 10.4067H12.1767C12.2424 10.4058 12.305 10.379 12.3511 10.3322C12.3972 10.2854 12.423 10.2224 12.423 10.1567C12.423 10.0911 12.3972 10.028 12.3511 9.98126C12.305 9.93448 12.2424 9.90771 12.1767 9.90674Z"
        fill="#040304"/>
    <path
        d="M10.8218 11.2988H5.17822C5.11192 11.2988 5.04833 11.3252 5.00145 11.3721C4.95456 11.4189 4.92822 11.4825 4.92822 11.5488C4.92822 11.6151 4.95456 11.6787 5.00145 11.7256C5.04833 11.7725 5.11192 11.7988 5.17822 11.7988H10.8218C10.8872 11.7975 10.9495 11.7706 10.9953 11.7239C11.0412 11.6771 11.0668 11.6143 11.0668 11.5488C11.0668 11.4834 11.0412 11.4205 10.9953 11.3738C10.9495 11.3271 10.8872 11.3001 10.8218 11.2988Z"
        fill="#040304"/>
    <path
        d="M9.44194 12.6914H6.55815C6.49269 12.6927 6.43035 12.7196 6.3845 12.7663C6.33866 12.8131 6.31299 12.8759 6.31299 12.9414C6.31299 13.0069 6.33867 13.0697 6.38452 13.1165C6.43036 13.1632 6.49271 13.1901 6.55817 13.1914H9.44194C9.5074 13.1901 9.56975 13.1632 9.6156 13.1165C9.66144 13.0697 9.68712 13.0069 9.68712 12.9414C9.68712 12.8759 9.66144 12.8131 9.6156 12.7663C9.56975 12.7196 9.5074 12.6927 9.44194 12.6914Z"
        fill="#040304"/>
</svg>
