<svg width="16" height="16" viewBox="0 0 16 16" fill="none" xmlns="http://www.w3.org/2000/svg">
    <path
        d="M13.8025 3.06506V3.05006C13.8747 2.84448 13.8627 2.6187 13.769 2.42198C13.6753 2.22526 13.5076 2.07358 13.3025 2.00006L12.64 1.77006C12.4344 1.69854 12.2089 1.71091 12.0124 1.8045C11.8158 1.8981 11.6641 2.06536 11.59 2.27006L8.73502 10.4701C8.72002 10.5101 9.05252 12.3251 9.05252 12.3251C8.80252 13.0401 8.19502 13.3251 7.98752 13.2851C7.90503 13.2701 7.98752 12.9351 8.00502 12.8351C8.07753 12.2551 7.62503 11.9351 7.07002 12.8126C6.98502 12.9476 6.77502 13.2626 6.68502 13.2426C6.59503 13.2226 6.66003 12.9176 6.68502 12.8001C6.77002 12.2526 6.70252 11.5276 5.34752 12.6626C4.86252 13.0676 4.20753 13.6351 3.82503 13.5201C3.69503 13.4801 3.44003 13.1751 3.52003 13.1201C4.22253 12.6401 5.22753 11.2501 5.08503 10.5001C5.06647 10.3761 5.00941 10.2612 4.92192 10.1714C4.83444 10.0817 4.72095 10.0217 4.59752 10.0001C4.41168 9.96093 4.21867 9.97332 4.03935 10.0359C3.86002 10.0985 3.7012 10.2088 3.58002 10.3551C3.00003 11.0001 2.79753 12.2326 2.90753 12.9176C2.42078 13.2041 1.91161 13.4508 1.38503 13.6551C1.35416 13.6664 1.32584 13.6837 1.30166 13.706C1.27748 13.7282 1.25793 13.755 1.24412 13.7849C1.2303 13.8147 1.2225 13.847 1.22116 13.8798C1.21981 13.9127 1.22495 13.9454 1.23628 13.9763C1.2476 14.0072 1.2649 14.0355 1.28717 14.0597C1.30944 14.0839 1.33626 14.1034 1.36609 14.1172C1.39592 14.131 1.42818 14.1388 1.46103 14.1402C1.49388 14.1415 1.52666 14.1364 1.55753 14.1251C2.07575 13.925 2.57732 13.6843 3.05753 13.4051C3.11053 13.543 3.19303 13.6678 3.29926 13.7705C3.40548 13.8733 3.53288 13.9516 3.67252 14.0001C4.31502 14.1926 5.06253 13.5576 5.67252 13.0451C5.84002 12.9026 6.05253 12.7226 6.19502 12.6251C6.19502 12.6726 6.14752 13.3926 6.32752 13.5951C6.36773 13.6417 6.41712 13.6795 6.47261 13.7062C6.5281 13.7329 6.5885 13.7478 6.65002 13.7501C7.00502 13.7676 7.25002 13.4201 7.47502 13.1126C7.45184 13.3034 7.50485 13.4956 7.62252 13.6476C7.67073 13.6991 7.72992 13.7391 7.7957 13.7646C7.86149 13.7902 7.93217 13.8006 8.00252 13.7951C8.35353 13.7489 8.68364 13.602 8.95294 13.3722C9.22224 13.1423 9.41921 12.8394 9.52002 12.5001C9.52002 12.5001 10.94 11.2801 10.955 11.2501L13.625 3.57256C13.655 3.46256 14.125 3.64256 14.0775 3.84256L13.39 5.91756C13.3691 5.98055 13.3741 6.04925 13.4039 6.10856C13.4337 6.16787 13.4858 6.21292 13.5488 6.23381C13.6118 6.25469 13.6805 6.2497 13.7398 6.21993C13.7991 6.19016 13.8441 6.13805 13.865 6.07506L14.55 4.00006C14.75 3.43506 14.1 3.08256 13.8025 3.06506ZM3.94753 10.7076C4.30503 10.3301 4.57003 10.4576 4.59253 10.5951C4.67003 11.0051 4.00003 12.0951 3.37753 12.5951C3.36003 12.0151 3.55003 11.1276 3.94753 10.7076ZM12.475 2.25006L13.135 2.48006C13.1755 2.49409 13.2127 2.51598 13.2447 2.54445C13.2767 2.57293 13.3027 2.60744 13.3213 2.646C13.3398 2.68456 13.3506 2.72642 13.353 2.76916C13.3553 2.8119 13.3492 2.85468 13.335 2.89506L13.28 3.05006L12 2.59506L12.055 2.44006C12.0859 2.35943 12.1473 2.29423 12.2259 2.25865C12.3046 2.22307 12.3941 2.21998 12.475 2.25006ZM11.8425 3.07756L13.1175 3.52256L10.565 10.8426L9.29002 10.4001L11.8425 3.07756ZM9.47752 11.8851L9.29752 10.9326L10.2225 11.2501L9.47752 11.8851Z"
        fill="currentColor"/>
</svg>
